<svg width="24" height="22" viewBox="0 0 24 22" fill="none" xmlns="http://www.w3.org/2000/svg">
<path d="M21.1875 6.86035C21.1875 8.64277 19.7143 10.0771 17.9196 10.0771C16.1089 10.0771 14.6518 8.6375 14.6518 6.86035C14.6518 5.0832 16.1143 3.64355 17.9196 3.64355C19.7143 3.64355 21.1875 5.07793 21.1875 6.86035ZM24 6.8709C24 10.1932 21.2679 12.8721 17.9089 12.8721L12.0536 17.0803C11.8393 19.3479 9.88393 21.1303 7.52679 21.1303C5.35714 21.1303 3.525 19.6115 3.08036 17.5971L0 16.3789V10.7205L5.20714 12.793C6.01607 12.3078 6.93214 12.0916 7.99286 12.1865L11.7964 6.82344C11.8232 3.53809 14.5554 0.875 17.9036 0.875C21.2679 0.875 24 3.56445 24 6.8709ZM10.875 16.6426C10.875 14.8127 9.38571 13.3467 7.52679 13.3467C7.28571 13.3467 7.04464 13.373 6.80357 13.4258L8.19643 13.9795C9.5625 14.5174 10.2321 16.0361 9.68036 17.3809C9.13393 18.7256 7.58036 19.3848 6.21429 18.8311C5.66786 18.6201 5.11607 18.3934 4.56964 18.1877C5.13214 19.2266 6.24107 19.9385 7.52679 19.9385C9.38571 19.9385 10.875 18.4725 10.875 16.6426ZM21.9911 6.8709C21.9911 4.65605 20.1536 2.85254 17.9089 2.85254C15.6429 2.85254 13.8107 4.65605 13.8107 6.8709C13.8107 9.09629 15.6482 10.8893 17.9089 10.8893C20.1536 10.8945 21.9911 9.10156 21.9911 6.8709Z" fill="#002500"/>
</svg>
