<svg width="136" height="78" viewBox="0 0 136 78" fill="none" xmlns="http://www.w3.org/2000/svg">
<path d="M31.2851 41.8975C29.8574 47.6233 24.0575 51.1078 18.3305 49.68C12.6058 48.2525 9.12083 42.453 10.5492 36.7276C11.9762 31.0012 17.776 27.5164 23.5014 28.9439C29.228 30.3714 32.7127 36.1715 31.2851 41.8975Z" fill="#F7931A"/>
<path d="M25.1147 38.2178C25.2903 37.0443 24.3967 36.4135 23.1749 35.9926L23.5712 34.403L22.6035 34.1618L22.2176 35.7096C21.9632 35.6462 21.7019 35.5864 21.4423 35.5271L21.8309 33.9692L20.8637 33.728L20.4671 35.3171C20.2565 35.2691 20.0498 35.2218 19.8492 35.1719L19.8502 35.1669L18.5157 34.8337L18.2582 35.8672C18.2582 35.8672 18.9762 36.0317 18.9611 36.0419C19.353 36.1398 19.4238 36.3991 19.412 36.6047L18.9605 38.4157C18.9876 38.4225 19.0226 38.4325 19.0611 38.4479C19.0289 38.4399 18.9944 38.4311 18.9589 38.4225L18.326 40.9594C18.2781 41.0784 18.1565 41.257 17.8825 41.1892C17.8922 41.2033 17.1792 41.0137 17.1792 41.0137L16.6987 42.1213L17.958 42.4352C18.1924 42.4939 18.4219 42.5553 18.648 42.6132L18.2475 44.2211L19.2141 44.4622L19.6107 42.8714C19.8748 42.9431 20.1311 43.0092 20.3819 43.0716L19.9867 44.6548L20.9544 44.896L21.3549 43.2912C23.0051 43.6035 24.246 43.4775 24.7683 41.9851C25.1891 40.7835 24.7473 40.0904 23.8791 39.6384C24.5114 39.4927 24.9877 39.0768 25.1147 38.2178ZM22.9036 41.3179C22.6046 42.5195 20.5812 41.87 19.9252 41.7071L20.4566 39.577C21.1126 39.7407 23.2162 40.0648 22.9036 41.3179ZM23.203 38.2004C22.9301 39.2934 21.246 38.7381 20.6998 38.6019L21.1815 36.67C21.7278 36.8062 23.4871 37.0603 23.203 38.2004Z" fill="#FAFAFA"/>
<path d="M55.1191 39.3119C55.1191 45.2148 50.334 50 44.4312 50C38.5283 50 33.7432 45.2148 33.7432 39.3119C33.7432 33.4091 38.5283 28.624 44.4312 28.624C50.334 28.624 55.1191 33.4091 55.1191 39.3119Z" fill="#627EEA"/>
<path d="M44.4304 33.5696L44.354 33.8208V41.11L44.4304 41.1838L47.927 39.1838L44.4304 33.5696Z" fill="#FAFAFA"/>
<path d="M44.4302 33.5698L40.9336 39.184L44.4302 41.1841V37.6461V33.5698Z" fill="#FAFAFA"/>
<path d="M44.4297 42.2849L44.3867 42.3357V44.9323L44.4297 45.0539L47.9285 40.2859L44.4297 42.2849Z" fill="#FAFAFA"/>
<path d="M44.4302 45.0539V42.2849L40.9336 40.2859L44.4302 45.0539Z" fill="#FAFAFA"/>
<path d="M44.4302 41.1835L47.9267 39.1834L44.4302 37.6455V41.1835Z" fill="#FAFAFA"/>
<path d="M40.9336 39.1834L44.4301 41.1835V37.6455L40.9336 39.1834Z" fill="#FAFAFA"/>
<path d="M78.3129 41.8975C76.8852 47.6233 71.0853 51.1078 65.3584 49.68C59.6336 48.2525 56.1487 42.453 57.577 36.7276C59.004 31.0012 64.8038 27.5164 70.5292 28.9439C76.2559 30.3714 79.7405 36.1715 78.3129 41.8975Z" fill="#0088CC"/>
<path fill-rule="evenodd" clip-rule="evenodd" d="M63.6416 35.2584C63.6415 35.265 63.6425 35.2743 63.6506 35.2886L67.3293 41.7261V35.1976H63.7034C63.687 35.1976 63.6784 35.2014 63.6728 35.2048C63.6655 35.2091 63.6573 35.2167 63.6508 35.2279C63.6444 35.2391 63.6418 35.25 63.6416 35.2584ZM68.5588 35.1976V41.7261L72.2375 35.2886C72.2456 35.2743 72.2466 35.265 72.2465 35.2584C72.2463 35.25 72.2437 35.2391 72.2373 35.2279C72.2308 35.2167 72.2226 35.2091 72.2153 35.2048C72.2097 35.2014 72.2011 35.1976 72.1847 35.1976H68.5588ZM62.5831 35.8986C62.0915 35.0384 62.7126 33.968 63.7034 33.968H72.1847C73.1755 33.968 73.7966 35.0384 73.305 35.8986L68.4778 44.3462C68.3684 44.5378 68.1647 44.656 67.944 44.656C67.7234 44.656 67.5197 44.5378 67.4103 44.3462L62.5831 35.8986Z" fill="#FAFAFA"/>
<path d="M102.146 39.3119C102.146 45.2147 97.3609 50 91.4581 50C85.5552 50 80.77 45.2147 80.77 39.3119C80.77 33.4091 85.5552 28.624 91.4581 28.624C97.3608 28.624 102.146 33.4091 102.146 39.3119Z" fill="#104A3A"/>
<path d="M90.2312 38.5061V36.0877H86.9512V33.968H96.1169V36.1176H92.8369V38.5061H90.2312Z" fill="#FAFAFA"/>
<path fill-rule="evenodd" clip-rule="evenodd" d="M85.5405 38.774C85.5405 37.9678 88.1768 37.311 91.4568 37.311C94.7369 37.311 97.3731 37.9678 97.3731 38.774C97.3731 39.5801 94.7369 40.2369 91.4568 40.2369C88.1768 40.2369 85.5405 39.5801 85.5405 38.774ZM96.8828 38.7736C96.6682 38.4751 94.8903 37.5495 91.457 37.5495C88.0237 37.5495 86.2457 38.4452 86.0311 38.7736C86.2457 39.0722 88.0237 39.5201 91.457 39.5201C94.9209 39.5201 96.6682 39.0722 96.8828 38.7736Z" fill="#FAFAFA"/>
<path d="M92.8343 39.2521V37.5802C92.4051 37.5504 91.9453 37.5205 91.4855 37.5205C91.0563 37.5205 90.6578 37.5205 90.2593 37.5504V39.2223C90.6271 39.2223 91.0563 39.2521 91.4855 39.2521C91.9453 39.2821 92.4051 39.2821 92.8343 39.2521Z" fill="#FAFAFA"/>
<path d="M91.4571 40.237C91.028 40.237 90.6294 40.237 90.231 40.2071V44.6557H92.8059V40.1772C92.3768 40.2071 91.9169 40.237 91.4571 40.237Z" fill="#FAFAFA"/>
<path d="M125.788 39.3683C125.788 45.2712 120.986 50.0564 115.063 50.0564C109.139 50.0564 104.337 45.2712 104.337 39.3683C104.337 33.4656 109.139 28.6804 115.063 28.6804C120.986 28.6804 125.788 33.4656 125.788 39.3683" fill="#404459"/>
<path d="M114.383 42.555L115.037 39.941L116.583 39.3405L116.968 37.8043L116.955 37.7662L115.432 38.3572L116.529 33.968H113.419L111.984 39.696L110.786 40.161L110.391 41.7448L111.587 41.2802L110.742 44.656H119.021L119.552 42.555H114.383" fill="#FAFAFA"/>
</svg>
